<svg xmlns="http://www.w3.org/2000/svg" width="1200" height="780" viewBox="0 0 1200 780" fill="none">
  <rect width="1200" height="780" fill="#0F172A"/>
  <text x="60" y="70" fill="#E2E8F0" font-family="Arial, Helvetica, sans-serif" font-size="34" font-weight="700">Salesforce Agentforce Orchestrator</text>
  <text x="60" y="105" fill="#94A3B8" font-family="Arial, Helvetica, sans-serif" font-size="18">Enterprise workflow orchestration across revenue ops, compliance, and predictive account management</text>

  <rect x="455" y="140" width="290" height="90" rx="18" fill="#1D4ED8" stroke="#93C5FD" stroke-width="2"/>
  <text x="520" y="178" fill="#EFF6FF" font-family="Arial, Helvetica, sans-serif" font-size="24" font-weight="700">Account / CRM Trigger</text>
  <text x="497" y="206" fill="#DBEAFE" font-family="Arial, Helvetica, sans-serif" font-size="16">lead, account, order, risk, or ops event</text>

  <rect x="415" y="285" width="370" height="110" rx="22" fill="#111827" stroke="#38BDF8" stroke-width="3"/>
  <text x="495" y="328" fill="#E0F2FE" font-family="Arial, Helvetica, sans-serif" font-size="28" font-weight="700">Agentforce Orchestrator</text>
  <text x="466" y="360" fill="#BAE6FD" font-family="Arial, Helvetica, sans-serif" font-size="17">Routes workflows, gathers signals, resolves exceptions</text>

  <rect x="70" y="500" width="190" height="110" rx="18" fill="#1E293B" stroke="#22C55E" stroke-width="2"/>
  <text x="105" y="545" fill="#DCFCE7" font-family="Arial, Helvetica, sans-serif" font-size="23" font-weight="700">Lead Agent</text>
  <text x="92" y="575" fill="#BBF7D0" font-family="Arial, Helvetica, sans-serif" font-size="15">Lead scoring and next-best action</text>

  <rect x="285" y="500" width="190" height="110" rx="18" fill="#1E293B" stroke="#F59E0B" stroke-width="2"/>
  <text x="298" y="545" fill="#FEF3C7" font-family="Arial, Helvetica, sans-serif" font-size="23" font-weight="700">Order Form Agent</text>
  <text x="304" y="575" fill="#FDE68A" font-family="Arial, Helvetica, sans-serif" font-size="15">Sales ops workflow preparation</text>

  <rect x="500" y="500" width="200" height="110" rx="18" fill="#1E293B" stroke="#A78BFA" stroke-width="2"/>
  <text x="515" y="545" fill="#EDE9FE" font-family="Arial, Helvetica, sans-serif" font-size="22" font-weight="700">Profit / Credit Agent</text>
  <text x="520" y="575" fill="#DDD6FE" font-family="Arial, Helvetica, sans-serif" font-size="15">Utilization and profitability checks</text>

  <rect x="725" y="500" width="180" height="110" rx="18" fill="#1E293B" stroke="#F43F5E" stroke-width="2"/>
  <text x="740" y="545" fill="#FFE4E6" font-family="Arial, Helvetica, sans-serif" font-size="22" font-weight="700">Compliance Agent</text>
  <text x="753" y="575" fill="#FECDD3" font-family="Arial, Helvetica, sans-serif" font-size="15">Policy checks and blocks</text>

  <rect x="930" y="500" width="200" height="110" rx="18" fill="#1E293B" stroke="#06B6D4" stroke-width="2"/>
  <text x="950" y="545" fill="#CFFAFE" font-family="Arial, Helvetica, sans-serif" font-size="22" font-weight="700">Predictive Impact Agent</text>
  <text x="963" y="575" fill="#A5F3FC" font-family="Arial, Helvetica, sans-serif" font-size="15">Future account outcome signals</text>

  <path d="M600 230 L600 285" stroke="#7DD3FC" stroke-width="4" stroke-linecap="round"/>
  <path d="M600 395 L165 500" stroke="#7DD3FC" stroke-width="3" stroke-linecap="round"/>
  <path d="M600 395 L380 500" stroke="#7DD3FC" stroke-width="3" stroke-linecap="round"/>
  <path d="M600 395 L600 500" stroke="#7DD3FC" stroke-width="3" stroke-linecap="round"/>
  <path d="M600 395 L815 500" stroke="#7DD3FC" stroke-width="3" stroke-linecap="round"/>
  <path d="M600 395 L1030 500" stroke="#7DD3FC" stroke-width="3" stroke-linecap="round"/>

  <rect x="365" y="665" width="470" height="70" rx="16" fill="#0B1220" stroke="#334155" stroke-width="2"/>
  <text x="452" y="706" fill="#E2E8F0" font-family="Arial, Helvetica, sans-serif" font-size="24" font-weight="700">Recommended Action / Guided Handoff</text>
</svg>
